<svg xmlns="http://www.w3.org/2000/svg" viewBox="0 0 64 64" fill="none">
  <defs>
    <linearGradient id="bg" x1="8" y1="4" x2="56" y2="60">
      <stop offset="0%" stop-color="#1a8cff"/>
      <stop offset="100%" stop-color="#0057d9"/>
    </linearGradient>
    <linearGradient id="heartFill" x1="32" y1="16" x2="32" y2="48">
      <stop offset="0%" stop-color="#ffffff"/>
      <stop offset="100%" stop-color="#e8f4ff"/>
    </linearGradient>
  </defs>

  <circle cx="32" cy="32" r="30" fill="url(#bg)"/>

  <!-- Heart -->
  <path
    d="M32 46 C32 46 14 34 14 24 C14 18 18 14 24 14 C27.5 14 30.5 16 32 19 C33.5 16 36.5 14 40 14 C46 14 50 18 50 24 C50 34 32 46 32 46Z"
    fill="url(#heartFill)"
    opacity="0.95"
  />

  <!-- Heartbeat line -->
  <path
    d="M12 30 L22 30 L26 22 L30 38 L34 26 L38 30 L52 30"
    stroke="#0057d9"
    stroke-width="2.8"
    stroke-linecap="round"
    stroke-linejoin="round"
    fill="none"
  />
</svg>
